<svg id="line" viewBox="0 0 64 64" height="15" width="15" xmlns="http://www.w3.org/2000/svg"><path d="m56.01953 10.02637h-8.90153a3.847 3.847 0 1 0 -7.32352 0h-16.59658a3.847 3.847 0 1 0 -7.32364 0h-7.89377a5.18343 5.18343 0 0 0 -5.17774 5.17822v39.61719a5.18343 5.18343 0 0 0 5.17772 5.17822h48.03906a5.18343 5.18343 0 0 0 5.17774-5.17822v-39.61719a5.18343 5.18343 0 0 0 -5.17774-5.17822zm-14.42969-1.16651a1.8621 1.8621 0 1 1 3.31531 1.16654h-2.89667a1.87751 1.87751 0 0 1 -.41864-1.16654zm-23.91992 0a1.86195 1.86195 0 1 1 3.31482 1.16654h-2.89661a1.87817 1.87817 0 0 1 -.41821-1.16654zm41.52735 45.96192a3.18177 3.18177 0 0 1 -3.17774 3.17822h-48.03906a3.18177 3.18177 0 0 1 -3.17774-3.17822v-39.61719a3.18177 3.18177 0 0 1 3.17774-3.17822h33.64783c2.54021-.00291 11.70493.0021 14.39124 0a3.18178 3.18178 0 0 1 3.17773 3.17823z"/><path d="m16.9502 19.11816h-5.84473a.99974.99974 0 0 0 -1 1v3.87842a.99973.99973 0 0 0 1 1h5.84473a.99974.99974 0 0 0 1-1v-3.87842a.99974.99974 0 0 0 -1-1zm-1 3.87842h-3.84473v-1.87842h3.84473z"/><path d="m28.64063 19.11816h-5.84571a.99974.99974 0 0 0 -1 1v3.87842a.99974.99974 0 0 0 1 1h5.84571a.99974.99974 0 0 0 1-1v-3.87842a.99974.99974 0 0 0 -1-1zm-1 3.87842h-3.84571v-1.87842h3.84571z"/><path d="m40.33105 19.11816h-5.8457a.99974.99974 0 0 0 -1 1v3.87842a.99974.99974 0 0 0 1 1h5.8457a.99973.99973 0 0 0 1-1v-3.87842a.99974.99974 0 0 0 -1-1zm-1 3.87842h-3.8457v-1.87842h3.8457z"/><path d="m52.02051 19.11816h-5.84473a.99974.99974 0 0 0 -1 1v3.87842a.99974.99974 0 0 0 1 1h5.84473a.99974.99974 0 0 0 1-1v-3.87842a.99974.99974 0 0 0 -1-1zm-1 3.87842h-3.84473v-1.87842h3.84473z"/><path d="m16.9502 32.27h-5.84473a.99973.99973 0 0 0 -1 1v3.878a.99973.99973 0 0 0 1 1h5.84473a.99974.99974 0 0 0 1-1v-3.878a.99974.99974 0 0 0 -1-1zm-1 3.87793h-3.84473v-1.87793h3.84473z"/><path d="m28.64063 32.27h-5.84571a.99974.99974 0 0 0 -1 1v3.878a.99974.99974 0 0 0 1 1h5.84571a.99974.99974 0 0 0 1-1v-3.878a.99974.99974 0 0 0 -1-1zm-1 3.87793h-3.84571v-1.87793h3.84571z"/><path d="m40.33105 32.27h-5.8457a.99974.99974 0 0 0 -1 1v3.878a.99974.99974 0 0 0 1 1h5.8457a.99973.99973 0 0 0 1-1v-3.878a.99973.99973 0 0 0 -1-1zm-1 3.87793h-3.8457v-1.87793h3.8457z"/><path d="m52.02051 32.27h-5.84473a.99974.99974 0 0 0 -1 1v3.878a.99974.99974 0 0 0 1 1h5.84473a.99974.99974 0 0 0 1-1v-3.878a.99974.99974 0 0 0 -1-1zm-1 3.87793h-3.84473v-1.87793h3.84473z"/><path d="m16.9502 43.96h-5.84473a.99973.99973 0 0 0 -1 1v3.87842a.99973.99973 0 0 0 1 1h5.84473a.99974.99974 0 0 0 1-1v-3.87842a.99974.99974 0 0 0 -1-1zm-1 3.87842h-3.84473v-1.87842h3.84473z"/><path d="m28.64063 43.96h-5.84571a.99974.99974 0 0 0 -1 1v3.87842a.99974.99974 0 0 0 1 1h5.84571a.99974.99974 0 0 0 1-1v-3.87842a.99974.99974 0 0 0 -1-1zm-1 3.87842h-3.84571v-1.87842h3.84571z"/><path d="m40.33105 43.96h-5.8457a.99974.99974 0 0 0 -1 1v3.87842a.99974.99974 0 0 0 1 1h5.8457a.99973.99973 0 0 0 1-1v-3.87842a.99973.99973 0 0 0 -1-1zm-1 3.87842h-3.8457v-1.87842h3.8457z"/><path d="m52.02051 43.96h-5.84473a.99974.99974 0 0 0 -1 1v3.87842a.99974.99974 0 0 0 1 1h5.84473a.99974.99974 0 0 0 1-1v-3.87842a.99974.99974 0 0 0 -1-1zm-1 3.87842h-3.84473v-1.87842h3.84473z"/></svg>