<?xml version="1.0"?>
<svg xmlns="http://www.w3.org/2000/svg" data-name="Layer 1" id="Layer_1" viewBox="0 0 128 128"><title/><path d="M44.20166,55.83154a24.842,24.842,0,0,0,2.50146.9165A60.19691,60.19691,0,0,0,64,59a60.12382,60.12382,0,0,0,17.23535-2.23389c.09619-.02637.19189-.05762.2832-.09229a24.04743,24.04743,0,0,0,2.27393-.83984A2.00014,2.00014,0,0,0,85,53.99756v-11.775l8.53711-2.37976a2.00029,2.00029,0,0,0,.10986-3.81934l-29-9.916a1.99769,1.99769,0,0,0-1.29395,0l-29,9.916a2.13712,2.13712,0,0,0-1.345,1.89655c0,.01843-.00763.0351-.00708.05365l.0011.00574L33,38V48a2,2,0,0,0,4,0V40.55l6,1.67255v11.775A2.00091,2.00091,0,0,0,44.20166,55.83154ZM81,52.63086q-.36621.12891-.75293.25a1.99561,1.99561,0,0,0-.28125.11182c.062-.03027.12988-.05957.13379-.061A56.16422,56.16422,0,0,1,64,55a56.1625,56.1625,0,0,1-16.104-2.06982q-.46729-.14575-.896-.29687V43.33759l16.46289,4.58917a2.006,2.006,0,0,0,1.07422,0L81,43.33759ZM41.75049,37.72168,64,30.11377l22.24951,7.60791L64,43.92383Z"/><path d="M.2041,110.57227a1.999,1.999,0,0,0,1.69824,1.11768l8.42871.41211,6.24854,6.30566a1.99972,1.99972,0,0,0,3.37354-.97656L23,103.63721l3.04688,13.79395a1.9999,1.9999,0,0,0,3.37354.97656l6.24854-6.30566,8.42871-.41211a2.00027,2.00027,0,0,0,1.541-3.14453l-7.51886-10.741a8.79768,8.79768,0,0,1-2.11151,1.71173,8.51348,8.51348,0,0,1-1.18115.56l5.457,7.79547-5.58643.27344a1.99954,1.99954,0,0,0-1.32275.58984l-4.21338,4.25146-2.39008-10.821a8.93824,8.93824,0,0,1-7.54309.00006l-2.39008,10.821L12.625,108.73486a1.99954,1.99954,0,0,0-1.32275-.58984l-5.58643-.27344,5.45679-7.7951a8.49738,8.49738,0,0,1-1.17944-.5589A8.81561,8.81561,0,0,1,7.88031,97.8042l-7.519,10.74121A2.0004,2.0004,0,0,0,.2041,110.57227Z"/><path d="M122,9H6a6.00656,6.00656,0,0,0-6,6V64.97949a8.55638,8.55638,0,0,1,.48438-.9873A9.57,9.57,0,0,1,4,60.56055V15a2.002,2.002,0,0,1,2-2H122a2.002,2.002,0,0,1,2,2V85a2.002,2.002,0,0,1-2,2H46.57556a8.80366,8.80366,0,0,1-1.05994,3.00781A8.5966,8.5966,0,0,1,44.83557,91H122a6.00656,6.00656,0,0,0,6-6V15A6.00656,6.00656,0,0,0,122,9Z"/><path d="M46.57587,67H87.02881a2,2,0,0,0,0-4H44.83563a8.598,8.598,0,0,1,.681.99365A8.80841,8.80841,0,0,1,46.57587,67Z"/><path d="M48.76733,75H95a2,2,0,0,0,0-4H46.92529A12.62288,12.62288,0,0,1,48.76733,75Z"/><path d="M108.91406,82.41406l10.5-10.5A2.00025,2.00025,0,0,0,120,70.5v-41a2.00025,2.00025,0,0,0-.58594-1.41406l-10.5-10.5A2.00025,2.00025,0,0,0,107.5,17h-87a2.00025,2.00025,0,0,0-1.41406.58594l-10.5,10.5A2.00025,2.00025,0,0,0,8,29.5V56.07446a8.55011,8.55011,0,0,1,4-2.43164V30.32861L21.32861,21h85.34277L116,30.32861V69.67139L106.67139,79H48.76733A12.61558,12.61558,0,0,1,46.925,83H107.5A2.00025,2.00025,0,0,0,108.91406,82.41406Z"/><path d="M2.46484,73.123A7.23752,7.23752,0,0,0,1,77a7.23752,7.23752,0,0,0,1.46484,3.877A6.46083,6.46083,0,0,1,3.231,82.29639,6.71366,6.71366,0,0,1,3.28906,83.998a7.15312,7.15312,0,0,0,.65674,4.00537,7.18835,7.18835,0,0,0,3.16943,2.58789,6.56282,6.56282,0,0,1,1.416.87744,6.56541,6.56541,0,0,1,.877,1.41553,7.19042,7.19042,0,0,0,2.5874,3.16943,7.14513,7.14513,0,0,0,4.00586.65723,6.76227,6.76227,0,0,1,1.70215.05811,6.46083,6.46083,0,0,1,1.41943.76611A7.23752,7.23752,0,0,0,23,99a7.23752,7.23752,0,0,0,3.877-1.46484,6.46083,6.46083,0,0,1,1.41943-.76611,6.68688,6.68688,0,0,1,1.70166-.05811,7.15736,7.15736,0,0,0,4.00537-.65674,7.18835,7.18835,0,0,0,2.58789-3.16943,6.56282,6.56282,0,0,1,.87744-1.416,6.56541,6.56541,0,0,1,1.41553-.877,7.19042,7.19042,0,0,0,3.16943-2.5874,7.15041,7.15041,0,0,0,.65723-4.00586,6.69605,6.69605,0,0,1,.05811-1.70215,6.46083,6.46083,0,0,1,.76611-1.41943A7.23752,7.23752,0,0,0,45,77a7.23752,7.23752,0,0,0-1.46484-3.877,6.46083,6.46083,0,0,1-.76611-1.41943,6.71366,6.71366,0,0,1-.05811-1.70166,7.15312,7.15312,0,0,0-.65674-4.00537,7.18835,7.18835,0,0,0-3.16943-2.58789,6.56282,6.56282,0,0,1-1.416-.87744,6.56541,6.56541,0,0,1-.877-1.41553,7.19042,7.19042,0,0,0-2.5874-3.16943,7.16015,7.16015,0,0,0-4.00586-.65723,6.71763,6.71763,0,0,1-1.70215-.05811,6.46083,6.46083,0,0,1-1.41943-.76611A7.23752,7.23752,0,0,0,23,55a7.23752,7.23752,0,0,0-3.877,1.46484,6.46083,6.46083,0,0,1-1.41943.76611,6.68688,6.68688,0,0,1-1.70166.05811,7.17266,7.17266,0,0,0-4.00537.65674,7.18835,7.18835,0,0,0-2.58789,3.16943,6.56282,6.56282,0,0,1-.87744,1.416,6.56541,6.56541,0,0,1-1.41553.877,7.19042,7.19042,0,0,0-3.16943,2.5874,7.15041,7.15041,0,0,0-.65723,4.00586A6.69605,6.69605,0,0,1,3.231,71.70361,6.46084,6.46084,0,0,1,2.46484,73.123ZM5.83838,75.272a9.21655,9.21655,0,0,0,1.25684-2.53564,9.5536,9.5536,0,0,0,.19092-2.896A4.68136,4.68136,0,0,1,7.4082,67.999a4.67117,4.67117,0,0,1,1.55762-1.04443,9.39128,9.39128,0,0,0,2.394-1.59473,9.39149,9.39149,0,0,0,1.59521-2.39453,4.66293,4.66293,0,0,1,1.04443-1.55713,4.71734,4.71734,0,0,1,1.84082-.12256,9.5185,9.5185,0,0,0,2.89551-.19043A9.21281,9.21281,0,0,0,21.272,59.83838,4.62044,4.62044,0,0,1,23,59a4.62044,4.62044,0,0,1,1.728.83838,9.21655,9.21655,0,0,0,2.53564,1.25684,9.5536,9.5536,0,0,0,2.896.19092,4.67864,4.67864,0,0,1,1.84131.12207,4.67117,4.67117,0,0,1,1.04443,1.55762,9.39128,9.39128,0,0,0,1.59473,2.394,9.39149,9.39149,0,0,0,2.39453,1.59521,4.66293,4.66293,0,0,1,1.55713,1.04443,4.68543,4.68543,0,0,1,.12256,1.84082,9.54955,9.54955,0,0,0,.19043,2.89551A9.21281,9.21281,0,0,0,40.16162,75.272,4.62044,4.62044,0,0,1,41,77a4.62044,4.62044,0,0,1-.83838,1.728,9.21655,9.21655,0,0,0-1.25684,2.53564,9.5536,9.5536,0,0,0-.19092,2.896A4.68136,4.68136,0,0,1,38.5918,86.001a4.67117,4.67117,0,0,1-1.55762,1.04443,9.39128,9.39128,0,0,0-2.394,1.59473,9.39149,9.39149,0,0,0-1.59521,2.39453,4.66293,4.66293,0,0,1-1.04443,1.55713,4.693,4.693,0,0,1-1.84082.12256,9.631,9.631,0,0,0-2.89551.19043A9.21281,9.21281,0,0,0,24.728,94.16162,4.62044,4.62044,0,0,1,23,95a4.62044,4.62044,0,0,1-1.728-.83838,9.21655,9.21655,0,0,0-2.53564-1.25684,7.36494,7.36494,0,0,0-1.91162-.2168c-.33936,0-.66943.01318-.98437.02588A4.68616,4.68616,0,0,1,13.999,92.5918a4.67117,4.67117,0,0,1-1.04443-1.55762,9.39128,9.39128,0,0,0-1.59473-2.394,9.39149,9.39149,0,0,0-2.39453-1.59521A4.66293,4.66293,0,0,1,7.4082,86.00049a4.68543,4.68543,0,0,1-.12256-1.84082,9.54956,9.54956,0,0,0-.19043-2.89551A9.21281,9.21281,0,0,0,5.83838,78.728,4.62044,4.62044,0,0,1,5,77,4.62044,4.62044,0,0,1,5.83838,75.272Z"/><path d="M23,89A12,12,0,1,0,11,77,12.01375,12.01375,0,0,0,23,89Zm0-20a8,8,0,1,1-8,8A8.00917,8.00917,0,0,1,23,69Z"/></svg>
