<?xml version="1.0"?>
<svg xmlns="http://www.w3.org/2000/svg" data-name="Layer 1" id="Layer_1" viewBox="0 0 128 128"><title/><path d="M94,49a2.0001,2.0001,0,0,0-2-2H58a2,2,0,0,0,0,4H92A2.0001,2.0001,0,0,0,94,49Z"/><path d="M58,55a2,2,0,0,0,0,4H77a2,2,0,0,0,0-4Z"/><path d="M66,75a2,2,0,0,0,0-4H58a2,2,0,0,0,0,4Z"/><path d="M86,29a2,2,0,0,0,0-4H42a2,2,0,0,0,0,4Z"/><path d="M96,35a2.0001,2.0001,0,0,0-2-2H34a2,2,0,0,0,0,4H94A2.0001,2.0001,0,0,0,96,35Z"/><path d="M20,44a4.004,4.004,0,0,0-4,4V74a4.004,4.004,0,0,0,4,4H45a4.004,4.004,0,0,0,4-4V48a4.004,4.004,0,0,0-4-4Zm0,30V48H45l.00293,26Z"/><path d="M119.1123,60.14453c.28223.38379.45605.60938.5625.74121.09393.03595.20856.07666.3252.11737V18a2.0001,2.0001,0,0,0-2-2H10a2.0001,2.0001,0,0,0-2,2V87a2.0001,2.0001,0,0,0,2,2H81.26605c-.00293-.101-.00647-.19867-.01117-.28223-.14941-.22461-.3877-.55371-.50586-.71777A17.5907,17.5907,0,0,1,78.908,85H12V20H116V56.82086A15.11093,15.11093,0,0,1,119.1123,60.14453Z"/><path d="M122,8H6a6.00656,6.00656,0,0,0-6,6V91a6.00656,6.00656,0,0,0,6,6H83.32184c-.05-.06451-.105-.1178-.15387-.18457A9.3866,9.3866,0,0,1,81.53925,93H6a2.00261,2.00261,0,0,1-2-2V14a2.00261,2.00261,0,0,1,2-2H122a2.00261,2.00261,0,0,1,2,2V62.662a9.29053,9.29053,0,0,1,2.832,2.52258A8.94562,8.94562,0,0,1,128,67.38287V14A6.00656,6.00656,0,0,0,122,8Z"/><path d="M83.168,65.18457A9.17388,9.17388,0,0,1,85.4516,63H58a2,2,0,0,0,0,4H82.14673A8.93132,8.93132,0,0,1,83.168,65.18457Z"/><path d="M123.60449,94.45215a7.8733,7.8733,0,0,0,1.11816-4.8125,8.18375,8.18375,0,0,1,.19531-2.19922,8.0259,8.0259,0,0,1,1.09473-1.78809A8.07892,8.07892,0,0,0,128,81a8.07892,8.07892,0,0,0-1.9873-4.65234,8.0259,8.0259,0,0,1-1.09473-1.78809,8.17606,8.17606,0,0,1-.19531-2.19824,7.86568,7.86568,0,0,0-1.11816-4.81445,7.97124,7.97124,0,0,0-4.27832-2.54883,8.22079,8.22079,0,0,1-2.02148-.84961,8.08495,8.08495,0,0,1-1.40918-1.625,7.96332,7.96332,0,0,0-3.79-3.28516,7.91327,7.91327,0,0,0-4.87988.43066A8.45991,8.45991,0,0,1,105,60.17383a8.45991,8.45991,0,0,1-2.22559-.50488,7.91561,7.91561,0,0,0-4.87988-.43066,7.95968,7.95968,0,0,0-3.78906,3.28418,8.05491,8.05491,0,0,1-1.41016,1.625,8.19008,8.19008,0,0,1-2.02246.85059,7.9765,7.9765,0,0,0-4.27734,2.5498,7.8733,7.8733,0,0,0-1.11816,4.8125,8.18375,8.18375,0,0,1-.19531,2.19922,8.02591,8.02591,0,0,1-1.09473,1.78809A8.07892,8.07892,0,0,0,82,81a8.07892,8.07892,0,0,0,1.9873,4.65234A8.02591,8.02591,0,0,1,85.082,87.44043a8.17606,8.17606,0,0,1,.19531,2.19824,7.86568,7.86568,0,0,0,1.11816,4.81445A7.97124,7.97124,0,0,0,90.67383,97.002a8.85487,8.85487,0,0,1,1.94513.80426l-7.39142,14.13031a1.99988,1.99988,0,0,0,1.99609,2.91406l6.9541-.78223,4.76953,5.27344a2.001,2.001,0,0,0,1.4834.6582,1.96891,1.96891,0,0,0,.51367-.06738,1.99963,1.99963,0,0,0,1.44043-1.50488l1.02283-4.676-2.28925-8.25507-1.81073,8.27972L96.457,110.625a1.98208,1.98208,0,0,0-1.707-.64551l-4.2334.47559,4.89532-9.358a5.85837,5.85837,0,0,0,2.4826,1.66467,5.06478,5.06478,0,0,0,1.57031.23926,11.192,11.192,0,0,0,3.30957-.66992c.5332-.16669,1.04132-.32,1.50238-.4137l4.31207,15.54944a2.00036,2.00036,0,0,0,3.44531.76855l4.71777-5.49512,7.29492.44531a1.97822,1.97822,0,0,0,1.834-.96289,2.00049,2.00049,0,0,0-.002-2.07129L118.151,97.41809c.35724-.14343.75952-.278,1.17615-.41614A7.9765,7.9765,0,0,0,123.60449,94.45215ZM120.47656,108.96l-4.47266-.27246a1.96355,1.96355,0,0,0-1.63965.69336l-2.92285,3.4043-2.78455-10.043a6.17467,6.17467,0,0,0,3.44861.01959,6.66091,6.66091,0,0,0,3.13708-2.42523Zm-2.40723-15.75488A11.17519,11.17519,0,0,0,114.96,94.6123a11.01429,11.01429,0,0,0-2.28125,2.4873c-.6084.82227-1.2373,1.67285-1.80176,1.85547a5.41056,5.41056,0,0,1-2.459-.44238A11.55113,11.55113,0,0,0,105,97.82617a11.564,11.564,0,0,0-3.41895.68652,5.40491,5.40491,0,0,1-2.458.44238c-.56445-.18262-1.19336-1.0332-1.80176-1.85645A11.05774,11.05774,0,0,0,95.04,94.61035a11.245,11.245,0,0,0-3.1084-1.40527A5.428,5.428,0,0,1,89.623,92.08984a5.33389,5.33389,0,0,1-.3457-2.48926,11.24352,11.24352,0,0,0-.39258-3.40234,10.63327,10.63327,0,0,0-1.65625-2.88965A5.32193,5.32193,0,0,1,86,81a5.32193,5.32193,0,0,1,1.22852-2.30859,10.63327,10.63327,0,0,0,1.65625-2.88965,11.219,11.219,0,0,0,.39258-3.40332,5.32969,5.32969,0,0,1,.34668-2.48828,5.41838,5.41838,0,0,1,2.30664-1.11523A11.17519,11.17519,0,0,0,95.04,67.3877a11.01429,11.01429,0,0,0,2.28125-2.4873c.6084-.82227,1.2373-1.67285,1.80176-1.85547a1.14278,1.14278,0,0,1,.34863-.0459,8.44217,8.44217,0,0,1,2.11035.48828,11.55113,11.55113,0,0,0,3.418.68652,11.564,11.564,0,0,0,3.41895-.68652,5.42021,5.42021,0,0,1,2.458-.44238c.56445.18262,1.19336,1.0332,1.80176,1.85645A11.05775,11.05775,0,0,0,114.96,67.38965a11.245,11.245,0,0,0,3.1084,1.40527,5.428,5.428,0,0,1,2.30859,1.11523,5.33389,5.33389,0,0,1,.3457,2.48926,11.24352,11.24352,0,0,0,.39258,3.40234,10.63327,10.63327,0,0,0,1.65625,2.88965A5.32193,5.32193,0,0,1,124,81a5.32193,5.32193,0,0,1-1.22852,2.30859,10.63327,10.63327,0,0,0-1.65625,2.88965,11.219,11.219,0,0,0-.39258,3.40332,5.3297,5.3297,0,0,1-.34668,2.48828A5.41838,5.41838,0,0,1,118.06934,93.20508Z"/><path d="M105,70a11,11,0,1,0,11,11A11.01245,11.01245,0,0,0,105,70Zm0,18a7,7,0,1,1,7-7A7.00849,7.00849,0,0,1,105,88Z"/></svg>
