<svg id="Layer_1" enable-background="new 0 0 66 66" height="512" viewBox="0 0 66 66" width="512" xmlns="http://www.w3.org/2000/svg"><g><path d="m6.242 35.866c-.184 5.409.178-.1-.862 14.52-.395 5.574 1.14 7.68 7.186 8.136 8.859.668 17.524 1.05 25.21 1.18 2.533.051 4.546-.058 6.211-1.834 2.471 1.368 5.335 2.049 8.172 1.785 9.411-.879 15.879-11.132 11.408-20.329-1.712-3.527-4.972-6.272-8.754-7.432.044-2.412-1.755-4.336-3.339-5.959l-13.972-14.31c-6.485-6.655-10.514-7.2-17.372-.97-3.01 2.742-17.734 16.74-18.93 20.61-.898 2.919 1.061 6.024 5.042 4.603zm4.803-3.046.365.365-1.032 1.033-.488-.488c.373-.282.757-.584 1.155-.91zm-1.559 1.214.538.538-.698.698-.666-.666c.266-.175.539-.361.826-.57zm-2.671 10.274.093-1.304.797.796c.024.024.058.024.088.036l-.726.724zm.273-3.845.344.344-.397.397zm.034-.673c.03-.6.05-1.198.062-1.792.004 0 .008.005.012.005.064 0 .128-.024.177-.073l.49-.49 1.469 1.468-1.546 1.546zm.075-2.392c.004-.203.012-.405.016-.608l.296.296zm.035-1.297c.007-.221.008-.444.018-.665.336-.165.666-.351.985-.551l.738.738-1.109 1.11zm18.909 7.083.034.034-1.051 1.051-1.043-1.043c.677-.052 1.389-.059 2.06-.042zm-2.698.112.104.104c-.089-.033-.188-.032-.259.039l-1.19 1.19-.69-.69c.568-.349 1.277-.539 2.035-.643zm-2.436.949.737.738-.76.759c-.098.098-.098.256 0 .354s.256.098.354 0l.76-.76 1.09 1.091c.098.098.256.098.354 0s.098-.256 0-.354l-1.09-1.091 1.191-1.19c.072-.072.072-.17.039-.259l1.089 1.089-.544.544c-.098.098-.098.256 0 .354s.256.098.353 0l.544-.544.26.26c.098.098.256.098.354 0s.098-.256 0-.354l-.26-.259 1.051-1.051.619.619-.976.976c-.098.098-.098.256 0 .354s.256.098.354 0l.976-.976.991.992c.098.098.256.098.354 0s.098-.256 0-.354l-.992-.992.699-.699c.805.222 1.501.59 1.972 1.217.92 1.227.762 2.038 1.202 13.841-4.108-.133-8.036-.306-12.469-.576l.787-.786.375.375c.098.098.256.098.353 0 .098-.098.098-.256 0-.354l-.375-.375 1.306-1.306c.052-.007.104-.02.144-.06s.052-.092.06-.144l.843-.843c.098-.098.098-.256 0-.354s-.256-.098-.354 0l-.768.768-1.592-1.592 1.559-1.56c.115.101.253.081.34-.006.094-.094.092-.241.006-.34l.417-.417c.098-.098.098-.256 0-.354s-.256-.098-.354 0l-.413.413-1.411-1.412 1.411-1.411 1.062 1.062c.098.098.256.098.354 0s.098-.256 0-.354l-1.062-1.062.942-.942c.098-.098.098-.256 0-.354s-.256-.098-.354 0l-.942.942-1.501-1.501c.171-.932.476-1.373.915-1.762zm5.877-1.025c.377.027.741.076 1.094.14l-.477.477zm-7.151 6.859.096-.096 1.411 1.412-1.555 1.556-.162-.162c.07-.903.139-1.808.21-2.71zm-.297 3.827.249-.249 1.592 1.591-1.231 1.231-.75-.75c.046-.608.093-1.215.14-1.823zm.517-6.658c.016-.205.032-.412.053-.617l1.234 1.234-1.448 1.448c.007-.081.073-.941.161-2.065zm-.709 9.138.448.448-.523.523c.024-.325.05-.647.075-.971zm18.55 2.316c-1.685-.029-3.378-.074-5.064-.123-.436-11.796-.248-12.93-1.404-14.472-1.605-2.133-5.624-2.169-8.178-1.777-.095-.051-.21-.054-.29.026-.006.006-.004.015-.009.021-3.587.671-3.76 3.079-3.893 4.792-.275 3.515-.572 7.323-.832 10.732-1.828-.117-3.655-.239-5.483-.377-5.497-.414-6.617-2.06-6.264-7.068l.345-4.844.345-.345.099.099c.098.098.256.098.353 0 .098-.098.098-.256 0-.354l-.099-.099 2.334-2.334c.098-.098.098-.256 0-.354s-.256-.098-.353 0l-1.307 1.307c-.012-.03-.012-.063-.036-.088l-1.103-1.103.027-.378.804-.804.679.68c.098.098.256.098.354 0s.098-.256 0-.354l-.679-.68 1.557-1.557c.121.085.23.069.316-.016.098-.098.098-.256 0-.354l-1.795-1.795 1.109-1.11.687.687c.098.098.256.098.354 0s.098-.256 0-.354l-.687-.687.698-.698.663.663c.098.098.256.098.353 0 .098-.098.098-.256 0-.353l-.663-.663 1.032-1.033 1.202 1.202c.098.098.256.098.354 0s.098-.256 0-.354l-1.202-1.202.235-.235c.098-.098.098-.256 0-.354s-.256-.098-.354 0l-.235.235-.329-.329c.381-.318.771-.654 1.166-1.001l1.33 1.33c.098.098.256.098.353 0 .098-.098.098-.256 0-.354l-.268-.268 1.443-1.443.54.54c.098.098.256.098.354 0s.098-.256 0-.354l-.54-.54 1.289-1.289.611.611c.098.098.256.098.353 0 .098-.098.098-.256 0-.354l-.61-.61 1.52-1.52.776.776-.875.876c-.098.098-.098.256 0 .353.098.098.256.098.353 0l2.98-2.98.074.074c.098.098.256.098.353 0 .098-.098.098-.256 0-.354l-.123-.123c.003-.068-.017-.136-.069-.188s-.12-.072-.188-.069l-1.158-1.158 1.803-1.802.699.699-.362.362c-.098.098-.098.256 0 .354s.256.098.354 0l.362-.362.382.382c.098.098.256.098.354 0s.098-.256 0-.354l-.382-.382 1.524-1.524c.098-.098.098-.256 0-.354s-.256-.098-.354 0l-1.524 1.524-.699-.699.827-.827c.232-.232-.119-.588-.354-.354l-.827.827-.375-.375c.733-.821 1.289-1.477 1.608-1.894l1.935 1.935c.098.098.256.098.354 0s.098-.256 0-.354l-1.063-1.063 1.546-1.546.452.451c.098.098.256.098.353 0 .098-.098.098-.256 0-.354l-.453-.443.034-.034c.098-.098.098-.256 0-.353-.098-.098-.256-.098-.353 0l-.034.034-.87-.87c.293-.3.614-.549.97-.735l.572.572-.131.131c-.098.098-.098.256 0 .354s.256.098.354 0l.131-.131.991.991c.098.098.256.098.354 0s.098-.256 0-.354l-.991-.991.744-.743c.013-.013.01-.031.019-.046 1.199.318 2.302 1.321 3.272 2.291 4.59 4.613 9.105 9.172 13.616 13.708-3.445 1.311-6.623 4.307-8.169 8.149-2.509 6.227-.468 13.291 5.352 17.083-1.38 1.346-3.25 1.39-5.326 1.346zm-15.601-36.754.355.355-1.802 1.803-.285-.285c.633-.672 1.219-1.304 1.732-1.873zm-2.074 2.238.274.274-.337.337c-.098.098-.098.256 0 .354s.256.098.354 0l.337-.337 1.109 1.109-1.751 1.751-.776-.776.767-.767c.098-.098.098-.256 0-.353-.098-.098-.256-.098-.354 0l-.767.767-.579-.578c.597-.609 1.179-1.209 1.723-1.781zm-2.073 2.136.575.576-1.52 1.52-.577-.577c.518-.508 1.024-1.015 1.522-1.519zm-1.881 1.866.583.583-1.289 1.289-.611-.611c.441-.416.879-.836 1.317-1.261zm-1.682 1.602.623.623-1.443 1.443-.687-.687c.497-.444 1-.906 1.507-1.379zm11.219-12.34.85.85-1.546 1.546-.576-.576.2-.304c.34-.524.687-1.052 1.072-1.516zm1.808-1.312c.37-.11.565-.132.953-.108l-.531.531zm20.732 42.274.523-.523.726.726c-.418-.048-.835-.114-1.249-.203zm1.955.27c-.011-.04-.016-.083-.048-.115l-1.031-1.031 1.436-1.436 1.602 1.602-.718.718c-.075.075-.074.18-.034.272-.401.014-.803.014-1.207-.01zm1.905-3.82 1.447 1.447-1.038 1.038-1.602-1.602 1.162-1.162c-.045.093-.046.202.031.279zm7.104-3.502 1.204 1.204-1.006 1.006-1.204-1.205zm-.155 2.563-1.569 1.569-1.204-1.204 1.569-1.569zm-.746 2.391-.469-.469 1.569-1.569.497.497c.047.047.108.068.169.07-.549.537-1.138 1.032-1.766 1.471zm-1.176-.469-.121.122c-.098.098-.098.256 0 .354s.256.098.353 0l.122-.122.396.396c-.694.448-1.423.839-2.184 1.153l-1.439-1.439 1.668-1.668zm-1.949 2.096c-.525.192-1.061.349-1.607.47l-.709-.709 1.038-1.039zm-3.114.716c-.055.005-.111.004-.166.008l.611-.611.479.479c-.307.054-.615.095-.924.124zm8.26-4.065c-.001-.062-.024-.125-.071-.172l-.497-.497 1.006-1.005.54.541c-.306.394-.63.774-.978 1.133zm2.48-3.587-.065-.065.178-.178c-.036.082-.076.162-.113.243zm-.205.437c-.289.562-.621 1.103-.99 1.617l-.495-.495 1.271-1.271c.152.152.134.126.214.149zm1.318-7.168c.064.662.08 1.326.046 1.99l-1.315-1.314c.092.044.171.076.278-.031l.817-.818zm-.003 2.648c-.072.704-.204 1.4-.389 2.085l-1.084-1.084 1.237-1.237zm-1.248-7.161c.551 1.133.929 2.34 1.137 3.575l-.058.058-1.082-1.083c-.098-.098-.256-.098-.354 0s-.098.256 0 .354l1.082 1.083-.817.818c-.077.077-.075.186-.031.279l-.013-.013c-.098-.098-.256-.098-.354 0s-.098.256 0 .354l1.149 1.149-1.237 1.237-.287-.287c-.098-.098-.256-.098-.354 0s-.098.256 0 .354l.287.287-.685.685c-.098.098-.098.256 0 .354s.256.098.354 0l.685-.685 1.245 1.245c.013.013.031.01.046.019-.005.017.003.007-.086.269-.07-.005-.141.012-.195.066l-.711.711-1.514-1.514c-.098-.098-.256-.098-.354 0s-.098.256 0 .354l1.514 1.514-1.271 1.271-1.204-1.204.784-.785c.098-.098.098-.256 0-.354s-.256-.098-.354 0l-.882.882c-.04.011-.082.016-.112.047-.031.031-.035.073-.047.113l-1.103 1.103-.088-.088c-.098-.098-.256-.098-.354 0s-.098.256 0 .354l.088.088-1.569 1.569-.619-.619c-.098-.098-.256-.098-.354 0s-.098.256 0 .354l.619.619-1.668 1.668-1.447-1.447c-.077-.077-.186-.075-.279-.031l1.779-1.778c.098-.098.098-.256 0-.354s-.256-.098-.354 0l-4.837 4.836-1.016-1.016c-.098-.098-.256-.098-.354 0s-.098.256 0 .354l1.016 1.016-.739.739c-7.855-2.049-11.985-10.159-8.978-17.628 4.526-11.247 19.183-10.764 23.976-.892zm-60.513-8.204c1.102-3.566 15.889-17.653 18.648-20.165 6.464-5.875 9.968-5.244 15.983.929l13.972 14.311c1.138 1.165 2.951 2.993 3.064 4.971-2.117-.504-4.574-.483-6.827.167-4.638-4.662-9.468-9.539-13.967-14.06-4.161-4.161-6.655-3.252-9.236.708-1.699 2.589-12.662 14.16-17.237 16.24-3.7 1.714-5.092-.845-4.4-3.101z"/><path d="m51.685 45.471.278-4.291c.515.052 1.027.139 1.523.299.265.086.545-.059.629-.322.085-.263-.059-.544-.322-.629-.575-.186-1.168-.301-1.765-.359l.094-1.451c.018-.275-.191-.513-.467-.531-.272-.015-.514.191-.531.467l-.095 1.471c-.947.02-1.891.199-2.785.536-3.198 1.203-2.868 3.899-1.137 5.089 1.052.724 2.282.785 3.509.744l-.179 2.754c-1.304.16-2.641.077-3.897-.29-.264-.076-.543.075-.621.339-.078.265.074.543.339.621 1.329.389 2.686.507 4.111.357l-.074 1.137c-.018.275.191.513.467.531.011 0 .022.001.033.001.261 0 .482-.203.499-.468l.088-1.358c3.537-.719 3.952-2.702 3.195-3.786-.63-.905-1.822-.897-2.892-.861zm-4.01-.545c-1.129-.776-1.439-2.44.923-3.33.76-.286 1.562-.438 2.367-.465l-.283 4.361c-1.017.04-2.139.032-3.007-.566zm4.505 3.961c-.237.076-.485.116-.728.173l.168-2.588c.656-.026 1.763-.105 2.138.433.343.49.105 1.442-1.578 1.982z"/><path d="m43.81 37.47c.625-.562 1.311-1.052 2.047-1.459l.377.377c.098.098.256.098.354 0s.098-.256 0-.354l-.274-.274c.804-.397 1.653-.702 2.532-.882.135-.028.222-.16.195-.295-.028-.136-.163-.22-.295-.195-.975.201-1.913.551-2.799 1.005l-.528-.527c-.098-.098-.256-.098-.353 0-.098.098-.098.256 0 .354l.424.424c-.724.414-1.4.905-2.021 1.463-.116-.155-.22-.32-.292-.502-.051-.128-.196-.19-.325-.14-.128.051-.191.196-.14.325.094.236.231.45.385.649-.513.503-.966 1.06-1.375 1.649l-.511-.342c-.116-.076-.27-.045-.347.069-.077.115-.046.271.069.347l.502.335c-.573.911-.803 1.478-1.065 2.242l-.564-.14c-.135-.031-.27.049-.303.183s.048.27.183.303l.532.132c-.255.873-.401 1.774-.443 2.684-.141-.006-.282-.022-.42-.053-.134-.029-.268.056-.298.19-.03.135.055.268.19.298.17.038.345.049.519.056-.003.96.105 1.918.337 2.849l-.71.31c-.126.055-.184.202-.129.329.054.123.199.185.329.129l.643-.28c.227.764.523 1.508.91 2.206.062.112.201.16.323.106.119-.055.176-.191.131-.313l-.092-.249-.033.012c-.329-.625-.578-1.287-.775-1.964l.956-.417c.126-.055.184-.202.129-.329-.055-.126-.202-.183-.329-.129l-.892.389c-.211-.874-.307-1.773-.301-2.673.284-.036.564-.097.827-.212.127-.056.184-.203.128-.33-.056-.126-.203-.182-.33-.128-.195.086-.402.138-.612.171.044-.858.184-1.708.426-2.531l.97.24c.137.033.27-.051.303-.183.033-.134-.048-.27-.183-.303l-.936-.232c.246-.708.456-1.229.993-2.086l.461.308c.114.076.269.046.347-.069.077-.115.046-.27-.069-.347l-.451-.302c.387-.557.814-1.084 1.298-1.56.219.197.462.368.735.486.123.054.273-.001.329-.13.055-.127-.003-.274-.13-.329-.207-.089-.39-.217-.559-.361z"/><path d="m7.053 30.968 1.497-1.497.424.424c.098.098.256.098.354 0s.098-.256 0-.353l-.424-.424 1.162-1.162.235.235c.098.098.256.098.354 0s.098-.256 0-.354l-.235-.235 1.952-1.951.404.403c.098.098.256.098.353 0 .098-.098.098-.256 0-.354l-.404-.404 1.699-1.699.433.433c.098.098.256.098.353 0 .098-.098.098-.256 0-.353l-.433-.433 1.32-1.32.433.433c.098.098.256.098.354 0s.098-.256 0-.354l-.433-.433 1.414-1.415.503.503c.098.098.256.098.354 0s.098-.256 0-.354l-.503-.503 1.604-1.604.683.683c.098.098.256.098.354 0s.098-.256 0-.354l-.683-.683 1.604-1.604.693.693c.098.098.256.098.354 0s.098-.256 0-.353l-.693-.693.753-.753c.098-.098.098-.256 0-.353-.098-.098-.256-.098-.353 0l-.753.753-.455-.455c-.098-.098-.256-.098-.354 0s-.098.256 0 .354l.455.455-1.604 1.604-.834-.834c-.098-.098-.256-.098-.354 0s-.098.256 0 .354l.834.834-1.604 1.604-.644-.644c-.098-.098-.256-.098-.354 0s-.098.256 0 .354l.644.644-1.415 1.414-.519-.517c-.098-.098-.256-.098-.354 0s-.098.256 0 .354l.518.518-1.32 1.32-.676-.676c-.098-.098-.256-.098-.353 0-.098.098-.098.256 0 .353l.676.676-1.699 1.699-.771-.77c-.098-.098-.256-.098-.354 0s-.098.256 0 .353l.771.77-1.951 1.951-.802-.802c-.098-.098-.256-.098-.354 0s-.098.256 0 .354l.802.802-1.161 1.162-1.055-1.055c-.098-.098-.256-.098-.354 0s-.098.256 0 .354l1.055 1.055-1.496 1.496c-.098.098-.098.256 0 .354.098.097.256.097.353 0z"/></g></svg>