<?xml version="1.0" encoding="UTF-8"?>
<svg xmlns="http://www.w3.org/2000/svg" id="Layer_4" data-name="Layer 4" viewBox="0 0 64 64" width="512" height="512"><path d="M32.019,33.122a2.691,2.691,0,0,1,2.688,2.689,2.829,2.829,0,0,0,5.658,0,8.34,8.34,0,0,0-5.518-7.844v-.449a2.829,2.829,0,1,0-5.658,0v.449a8.341,8.341,0,0,0,2.83,16.19,2.689,2.689,0,1,1-2.69,2.689,2.829,2.829,0,1,0-5.657,0,8.339,8.339,0,0,0,5.517,7.844v.26a2.829,2.829,0,0,0,5.658,0v-.26A8.341,8.341,0,0,0,32.019,38.5a2.689,2.689,0,1,1,0-5.378Zm0,7.378A6.342,6.342,0,0,1,33.6,52.985a1,1,0,0,0-.75.968v1a.829.829,0,0,1-1.658,0v-1a1,1,0,0,0-.75-.968,6.344,6.344,0,0,1-4.767-6.139.829.829,0,1,1,1.657,0,4.689,4.689,0,1,0,4.69-4.689,6.342,6.342,0,0,1-1.581-12.485,1,1,0,0,0,.751-.968V27.518a.829.829,0,1,1,1.658,0V28.7a1,1,0,0,0,.751.968,6.344,6.344,0,0,1,4.767,6.139.829.829,0,0,1-1.658,0A4.689,4.689,0,1,0,32.019,40.5Z"/><path d="M14.784,34.546,21.635,20H26v2a1,1,0,0,0,2,0V20h3v2a1,1,0,0,0,2,0V20h3v2a1,1,0,0,0,2,0V20h4.365l2.3,4.886a1,1,0,1,0,1.809-.852l-2.094-4.447A3.145,3.145,0,0,0,44,13.907L45.864,7.97a.9.9,0,0,0,.032-.134,3.689,3.689,0,0,0-.82-3.044A3.868,3.868,0,0,0,42.16,3.43a3.706,3.706,0,0,0-2.4.879,1.8,1.8,0,0,1-2.4-.106A7.5,7.5,0,0,0,34.3,2.354a1,1,0,0,0-.59,1.912,5.475,5.475,0,0,1,2.248,1.351,3.847,3.847,0,0,0,5.088.231,1.809,1.809,0,0,1,2.508.236,1.694,1.694,0,0,1,.385,1.358l-1.963,6.244A1,1,0,0,0,42,15.68h.84a1.16,1.16,0,1,1,0,2.32H21.24a1.16,1.16,0,1,1,0-2.32H38a1,1,0,0,0,0-2V11a1,1,0,0,0-2,0v2.68H33V11a1,1,0,0,0-2,0v2.68H28V11a1,1,0,0,0-2,0v2.68H22.107L20.146,7.442a1.772,1.772,0,0,1,2.9-1.591,3.848,3.848,0,0,0,5.084-.234A5.492,5.492,0,0,1,30.313,4.28a1,1,0,0,0-.626-1.9A7.484,7.484,0,0,0,26.713,4.2a1.8,1.8,0,0,1-2.393.109,3.771,3.771,0,0,0-6.136,3.525.887.887,0,0,0,.032.133L20.08,13.9a3.147,3.147,0,0,0-.443,5.646l-6.684,14.2a20.44,20.44,0,0,0,.842,17.22,1,1,0,1,0,1.769-.932A18.187,18.187,0,0,1,14.784,34.546Z"/><path d="M41.249,57.545A18.21,18.21,0,0,1,32,60a18.463,18.463,0,0,1-14.337-6.783,1,1,0,1,0-1.547,1.266,20.578,20.578,0,0,0,26.135,4.792,1,1,0,1,0-1-1.73Z"/><path d="M51.024,33.694l-2.839-6.03a1,1,0,1,0-1.809.852l2.817,5.979a18.377,18.377,0,0,1-4.869,20.819,1,1,0,0,0,1.332,1.492A20.628,20.628,0,0,0,51.024,33.694Z"/></svg>
