<svg id="Capa_1" enable-background="new 0 0 512.019 512.019" height="512" viewBox="0 0 512.019 512.019" width="512" xmlns="http://www.w3.org/2000/svg"><path d="m9.349 234.163c12.069 15.681 32.657 21.332 50.661 14.981v187.866c0 8.284 6.716 15 15 15h67.975c24.427 36.154 65.972 60 113.025 60s88.598-23.846 113.025-60h67.975c8.284 0 15-6.716 15-15v-187.874c17.85 6.296 38.507.82 50.661-14.973 15.126-19.655 11.554-47.897-8.246-63.128l-42.415-32.507v-123.518c0-8.284-6.716-15-15-15h-60c-8.284 0-15 6.716-15 15v54.541l-78.562-60.211c-16.154-12.426-38.721-12.426-54.854-.016l-211.019 161.727c-19.714 15.164-23.399 43.396-8.226 63.112zm246.661 247.847c-58.448 0-106-47.103-106-105 0-58.449 47.552-106 106-106s106 47.551 106 106c0 57.897-47.551 105-106 105zm166-60h-37.779c5.031-14.082 7.779-29.228 7.779-45 0-74.639-61.379-136-136-136-74.641 0-136 61.379-136 136 0 15.772 2.748 30.918 7.779 45h-37.779v-193.079l166-127.174 166 127.174zm-30-392h30v85.525l-30-22.992zm-356.165 164.836 211.019-161.727c5.386-4.143 12.908-4.143 18.313.016l210.978 161.695c6.573 5.057 7.799 14.467 2.741 21.037-5.042 6.553-14.478 7.783-21.031 2.741-.009-.006-.017-.012-.024-.018-7.912-6.062-179.453-137.48-192.708-147.635-2.691-2.062-5.906-3.093-9.122-3.093s-6.431 1.031-9.122 3.093c-12.4 9.5-184.734 141.526-192.732 147.653-6.554 5.042-15.988 3.812-21.031-2.741-5.066-6.58-3.814-15.996 2.719-21.021z"/><path d="m271.01 467.01v-17.58c17.459-6.192 30-22.865 30-42.42 0-24.813-20.187-45-45-45-8.271 0-15-6.729-15-15s6.729-15 15-15c6.045 0 11.473 3.598 13.827 9.166 3.228 7.63 12.025 11.2 19.659 7.972 7.63-3.227 11.198-12.028 7.972-19.658-5.03-11.893-14.738-20.783-26.458-24.915v-17.565c0-8.284-6.716-15-15-15s-15 6.716-15 15v17.58c-17.459 6.192-30 22.865-30 42.42 0 24.813 20.187 45 45 45 8.271 0 15 6.729 15 15s-6.729 15-15 15c-6.045 0-11.473-3.598-13.827-9.166-3.228-7.629-12.03-11.199-19.658-7.972-7.63 3.227-11.199 12.028-7.973 19.658 5.03 11.893 14.738 20.783 26.458 24.915v17.564c0 8.284 6.716 15 15 15 8.285.001 15-6.715 15-14.999z"/></svg>